<svg xmlns="http://www.w3.org/2000/svg" version="1.1" xmlns:xlink="http://www.w3.org/1999/xlink" xmlns:svgjs="http://svgjs.dev/svgjs" width="1000" height="234" viewBox="0 0 1000 234"><g transform="matrix(1,0,0,1,-0.6060606060606233,-0.1781576967959495)"><svg viewBox="0 0 396 93" data-background-color="#ffffff" preserveAspectRatio="xMidYMid meet" height="234" width="1000" xmlns="http://www.w3.org/2000/svg" xmlns:xlink="http://www.w3.org/1999/xlink"><g id="tight-bounds" transform="matrix(1,0,0,1,0.2400000000000091,0.07080626411121216)"><svg viewBox="0 0 395.52 92.85838747177759" height="92.85838747177759" width="395.52"><g><svg viewBox="0 0 560.363050113865 131.55948936170208" height="92.85838747177759" width="395.52"><g><rect width="5.44263169168588" height="131.55948936170208" x="145.15269148059315" y="0" fill="#ed2647" opacity="1" stroke-width="0" stroke="transparent" fill-opacity="1" class="rect-i$-0" data-fill-palette-color="primary" rx="1%" id="i$-0" data-palette-color="#ed2647"></rect></g><g transform="matrix(1,0,0,1,164.8430501138651,0.32726241134750467)"><svg viewBox="0 0 395.52 130.90496453900707" height="130.90496453900707" width="395.52"><g id="textblocktransform"><svg viewBox="0 0 395.52 130.90496453900707" height="130.90496453900707" width="395.52" id="textblock"><g><svg viewBox="0 0 395.52 130.90496453900707" height="130.90496453900707" width="395.52"><g transform="matrix(1,0,0,1,0,0)"><svg width="395.52" viewBox="3.35 -34.9 232.65 74" height="130.90496453900707" data-palette-color="#ed2647"><svg></svg><svg></svg><g class="wordmark-text-0" data-fill-palette-color="primary" id="text-0"><path d="M3.35 0v-34.3h16.35c3.833 0 6.717 0.973 8.65 2.92 1.933 1.953 2.9 4.713 2.9 8.28v0c0 3.567-1.007 6.34-3.02 8.32-2.02 1.987-5.03 2.98-9.03 2.98v0h-8.6v11.8zM10.6-17.95h8.45c1.567 0 2.767-0.45 3.6-1.35 0.833-0.9 1.25-2.167 1.25-3.8v0c0-1.6-0.417-2.843-1.25-3.73-0.833-0.88-2.033-1.32-3.6-1.32v0h-8.45zM36.7 0v-34.3h18.2c3.833 0 6.717 0.94 8.65 2.82 1.933 1.887 2.9 4.53 2.9 7.93v0c0 4.8-2 8-6 9.6v0l7 13.95h-7.85l-6.05-12.8h-9.6v12.8zM43.95-18.85h10.3c1.567 0 2.767-0.417 3.6-1.25 0.833-0.833 1.25-1.983 1.25-3.45v0c0-1.467-0.417-2.6-1.25-3.4-0.833-0.8-2.033-1.2-3.6-1.2v0h-10.3zM88.9 0.6c-5.5 0-9.767-1.477-12.8-4.43-3.033-2.947-4.55-7.387-4.55-13.32v0c0-5.933 1.517-10.377 4.55-13.33 3.033-2.947 7.3-4.42 12.8-4.42v0c5.533 0 9.817 1.473 12.85 4.42 3.033 2.953 4.55 7.397 4.55 13.33v0c0 5.933-1.517 10.373-4.55 13.32-3.033 2.953-7.317 4.43-12.85 4.43zM88.9-5.55c3.267 0 5.743-0.943 7.43-2.83 1.68-1.88 2.52-4.553 2.52-8.02v0-1.5c0-3.467-0.84-6.143-2.52-8.03-1.687-1.88-4.163-2.82-7.43-2.82v0c-3.267 0-5.733 0.94-7.4 2.82-1.667 1.887-2.5 4.563-2.5 8.03v0 1.5c0 3.467 0.833 6.14 2.5 8.02 1.667 1.887 4.133 2.83 7.4 2.83zM121.4 0.6c-3.8 0-6.717-0.867-8.75-2.6-2.033-1.733-3.05-4.283-3.05-7.65v0-2.15h7.2v2.05c0 1.367 0.393 2.417 1.18 3.15 0.78 0.733 1.92 1.1 3.42 1.1v0c1.467 0 2.567-0.367 3.3-1.1 0.733-0.733 1.1-1.783 1.1-3.15v0-24.55h7.3v24.65c0 3.367-1 5.917-3 7.65-2 1.733-4.9 2.6-8.7 2.6zM139.5 0v-34.3h26.95v6.15h-19.7v7.55h17.5v6.15h-17.5v8.3h20v6.15zM181.15 0v-28.05h-10.6v-6.25h28.45v6.25h-10.6v28.05zM218.6 0.6c-5.5 0-9.767-1.477-12.8-4.43-3.033-2.947-4.55-7.387-4.55-13.32v0c0-5.933 1.517-10.377 4.55-13.33 3.033-2.947 7.3-4.42 12.8-4.42v0c5.533 0 9.817 1.473 12.85 4.42 3.033 2.953 4.55 7.397 4.55 13.33v0c0 5.933-1.517 10.373-4.55 13.32-3.033 2.953-7.317 4.43-12.85 4.43zM218.6-5.55c3.267 0 5.743-0.943 7.43-2.83 1.68-1.88 2.52-4.553 2.52-8.02v0-1.5c0-3.467-0.84-6.143-2.52-8.03-1.687-1.88-4.163-2.82-7.43-2.82v0c-3.267 0-5.733 0.94-7.4 2.82-1.667 1.887-2.5 4.563-2.5 8.03v0 1.5c0 3.467 0.833 6.14 2.5 8.02 1.667 1.887 4.133 2.83 7.4 2.83z" fill="#ed2647" fill-rule="nonzero" stroke="none" stroke-width="1" stroke-linecap="butt" stroke-linejoin="miter" stroke-miterlimit="10" stroke-dasharray="" stroke-dashoffset="0" font-family="none" font-weight="none" font-size="none" text-anchor="none" style="mix-blend-mode: normal" data-fill-palette-color="primary" opacity="1"></path><path transform="translate(0,38.5)" d="M3.35 0v-34.3h7.05l13.2 18.65c0.4 0.567 1.067 1.683 2 3.35v0l0.25-0.15-0.15-2.9v-18.95h7.05v34.3h-7.05l-13.25-18.8c-0.633-0.9-1.283-2-1.95-3.3v0l-0.25 0.15c0.1 1.433 0.15 2.433 0.15 3v0 18.95zM54.1 0.6c-4.633 0-8.233-1.133-10.8-3.4-2.567-2.267-3.85-5.583-3.85-9.95v0-21.55h7.25v21.2c0 2.467 0.643 4.34 1.93 5.62 1.28 1.287 3.103 1.93 5.47 1.93v0c2.367 0 4.21-0.643 5.53-1.93 1.313-1.28 1.97-3.153 1.97-5.62v0-21.2h7.25v21.55c0 4.367-1.293 7.683-3.88 9.95-2.58 2.267-6.203 3.4-10.87 3.4zM83.85 0v-28.05h-10.6v-6.25h28.45v6.25h-10.6v28.05zM106.1 0v-34.3h18.2c3.833 0 6.717 0.94 8.65 2.82 1.933 1.887 2.9 4.53 2.9 7.93v0c0 4.8-2 8-6 9.6v0l7 13.95h-7.85l-6.05-12.8h-9.6v12.8zM113.35-18.85h10.3c1.567 0 2.767-0.417 3.6-1.25 0.833-0.833 1.25-1.983 1.25-3.45v0c0-1.467-0.417-2.6-1.25-3.4-0.833-0.8-2.033-1.2-3.6-1.2v0h-10.3zM142.2 0v-34.3h7.25v34.3zM156.1 0v-34.3h18.2c3.833 0 6.717 0.94 8.65 2.82 1.933 1.887 2.9 4.53 2.9 7.93v0c0 4.8-2 8-6 9.6v0l7 13.95h-7.85l-6.05-12.8h-9.6v12.8zM163.35-18.85h10.3c1.567 0 2.767-0.417 3.6-1.25 0.833-0.833 1.25-1.983 1.25-3.45v0c0-1.467-0.417-2.6-1.25-3.4-0.833-0.8-2.033-1.2-3.6-1.2v0h-10.3z" fill="#ed2647" fill-rule="nonzero" stroke="none" stroke-width="1" stroke-linecap="butt" stroke-linejoin="miter" stroke-miterlimit="10" stroke-dasharray="" stroke-dashoffset="0" font-family="none" font-weight="none" font-size="none" text-anchor="none" style="mix-blend-mode: normal" data-fill-palette-color="primary" opacity="1"></path></g></svg></g></svg></g></svg></g></svg></g><g transform="matrix(1,0,0,1,0,0.32726241134750467)"><svg viewBox="0 0 130.90496453900707 130.90496453900707" height="130.90496453900707" width="130.90496453900707"><g><svg xmlns="http://www.w3.org/2000/svg" xmlns:xlink="http://www.w3.org/1999/xlink" version="1.1" x="0" y="0" viewBox="5 5 90 90" enable-background="new 0 0 100 100" xml:space="preserve" height="130.90496453900707" width="130.90496453900707" class="icon-icon-0" data-fill-palette-color="accent" id="icon-0"><path fill="#ed2647" d="M95 52c0-12.871-5.692-24.431-14.682-32.318C72.431 10.692 60.871 5 48 5 24.29 5 5 24.29 5 48c0 12.868 5.69 24.426 14.677 32.313C27.564 89.306 39.126 95 52 95c0.084 0 0.166-0.006 0.25-0.006S52.416 95 52.5 95C75.972 95 95 75.972 95 52.5c0-0.084-0.006-0.166-0.006-0.25S95 52.084 95 52zM21.828 73.371c-4.245-5.978-6.77-13.259-6.822-21.121 0.135-20.511 16.732-37.109 37.244-37.244 7.862 0.052 15.144 2.577 21.121 6.822C80.224 28.473 84.5 37.758 84.5 48c0 20.126-16.374 36.5-36.5 36.5C37.758 84.5 28.473 80.224 21.828 73.371zM6 48C6 24.841 24.841 6 48 6c9.858 0 18.926 3.422 26.1 9.13C67.637 11.242 60.076 9 52 9 28.29 9 9 28.29 9 52c0 8.074 2.241 15.633 6.127 22.095C9.421 66.923 6 57.856 6 48zM52 89c-10.08 0-19.227-4.055-25.905-10.615C32.269 82.854 39.838 85.5 48 85.5c20.678 0 37.5-16.822 37.5-37.5 0-8.162-2.646-15.731-7.115-21.905C84.945 32.773 89 41.92 89 52 89 72.402 72.402 89 52 89z" data-fill-palette-color="accent"></path></svg></g></svg></g></svg></g><defs></defs></svg><rect width="395.52" height="92.85838747177759" fill="none" stroke="none" visibility="hidden"></rect></g></svg></g></svg>